/* XPM */
static char *title_4_active[] = {
/* columns rows colors chars-per-pixel */
"8 23 3 1 ",
"  c black",
". c #507EAF",
"X c #C3C7CB",
/* pixels */
"        ",
"XXXXXXXX",
"XXXXXXXX",
"        ",
"........",
"........",
"........",
"........",
"........",
"........",
"........",
"........",
"........",
"........",
"........",
"........",
"........",
"........",
"........",
"........",
"........",
"........",
"        "
};
